# xmcd CD database file
#
# Track frame offsets:
#	150
#	35827
#	85785
#	135611
#	185595
#	217783
#	250409
#
# Disc length: 3744 seconds
#
# Revision: 1
# Processed by: cddbd v1.5.2PL0 Copyright (c) Steve Scherf et al.
# Submitted via: CDex 1.51
#
DISCID=5e0e9e07
DTITLE=Amrit Kirtan - Sacred Circle
DYEAR=2007
DGENRE=New Age
TTITLE0=Aad Guray Nameh (Mangalacharan Mantra)
TTITLE1=Gobindah, Gobindah, Gobindah, Haray, Haray
TTITLE2=Waah Yantee
TTITLE3=Guru Ram Das Miracle Mantra
TTITLE4=Mool Mantra
TTITLE5=Ong Namo Guru Dev Namo (Adi Mantra)
TTITLE6=The Longtime Sun Shine Song
EXTD=YEAR: 2007
EXTT0=
EXTT1=
EXTT2=
EXTT3=
EXTT4=
EXTT5=
EXTT6=
PLAYORDER=
